<svg width="183" height="62" viewBox="0 0 183 62" fill="none" xmlns="http://www.w3.org/2000/svg">
<path d="M72.9566 15.9983C71.058 15.9983 69.0633 15.6739 67.5 14.8925V1.10587C69.0388 0.346559 71.0335 2.5382e-05 72.9566 2.5382e-05C74.8797 2.5382e-05 76.8273 0.324476 78.3642 1.10587V6.3956H74.4936V2.79607C74.0377 2.6228 73.484 2.55825 72.9321 2.55825C72.3802 2.55825 71.8736 2.6228 71.3933 2.79607V13.2023C71.8491 13.3755 72.3784 13.4401 72.9321 13.4401C73.4859 13.4401 74.0133 13.3755 74.4936 13.2023V9.60443H78.3642V14.8942C76.8499 15.6535 74.8552 15.9779 72.9566 16V15.9983Z" fill="#F7DD43"/>
<path d="M85.6234 15.9983C83.5798 15.9983 81.6096 15.6076 80.0463 14.8058V1.1704C81.5852 0.390699 83.5572 0 85.6234 0C87.6897 0 89.6128 0.368616 91.1516 1.1704V14.8058C89.6373 15.6076 87.6426 15.9762 85.6234 15.9983ZM87.2828 2.84021C86.827 2.66695 86.2733 2.58031 85.6008 2.58031C84.9284 2.58031 84.3992 2.66695 83.9415 2.84021V13.1377C84.3973 13.333 84.951 13.4197 85.6008 13.4197C86.2507 13.4197 86.8025 13.333 87.2828 13.1377V2.84021Z" fill="#F7DD43"/>
<path d="M97.9059 10.1446H96.8718V15.8029H92.9541V0.19536H97.9059C100.262 0.19536 102.04 0.628526 103.434 1.51694V8.82301C102.065 9.69104 100.26 10.1446 97.9059 10.1446ZM99.5408 2.88269C99.1811 2.64487 98.6989 2.53616 97.8814 2.53616H96.8229V7.8038H97.8814C98.6744 7.8038 99.1547 7.69508 99.5408 7.47935V2.88269Z" fill="#F7DD43"/>
<path d="M111.629 15.8029V10.1446H108.746V15.8029H104.852V1.14832C106.271 0.389 108.265 0 110.188 0C112.112 0 114.082 0.390699 115.5 1.14832V15.8029H111.629ZM111.629 2.70941C111.221 2.53615 110.716 2.44951 110.187 2.44951C109.657 2.44951 109.152 2.53615 108.744 2.70941V7.67299H111.627V2.70941H111.629Z" fill="#F7DD43"/>
<path d="M14.7129 45.9248H19.0928C19.0049 47.3604 18.6094 48.6348 17.9062 49.748C17.2129 50.8613 16.2412 51.7305 14.9912 52.3555C13.751 52.9805 12.2568 53.293 10.5088 53.293C9.1416 53.293 7.91602 53.0586 6.83203 52.5898C5.74805 52.1113 4.82031 51.4277 4.04883 50.5391C3.28711 49.6504 2.70605 48.5762 2.30566 47.3164C1.90527 46.0566 1.70508 44.6455 1.70508 43.083V41.6035C1.70508 40.041 1.91016 38.6299 2.32031 37.3701C2.74023 36.1006 3.33594 35.0215 4.10742 34.1328C4.88867 33.2441 5.82129 32.5605 6.90527 32.082C7.98926 31.6035 9.2002 31.3643 10.5381 31.3643C12.3154 31.3643 13.8145 31.6865 15.0352 32.3311C16.2656 32.9756 17.2178 33.8643 17.8916 34.9971C18.5752 36.1299 18.9854 37.4189 19.1221 38.8643H14.7275C14.6787 38.0049 14.5078 37.2773 14.2148 36.6816C13.9219 36.0762 13.4775 35.6221 12.8818 35.3193C12.2959 35.0068 11.5146 34.8506 10.5381 34.8506C9.80566 34.8506 9.16602 34.9873 8.61914 35.2607C8.07227 35.5342 7.61328 35.9492 7.24219 36.5059C6.87109 37.0625 6.59277 37.7656 6.40723 38.6152C6.23145 39.4551 6.14355 40.4414 6.14355 41.5742V43.083C6.14355 44.1865 6.22656 45.1582 6.39258 45.998C6.55859 46.8281 6.8125 47.5312 7.1543 48.1074C7.50586 48.6738 7.95508 49.1035 8.50195 49.3965C9.05859 49.6797 9.72754 49.8213 10.5088 49.8213C11.4268 49.8213 12.1836 49.6748 12.7793 49.3818C13.375 49.0889 13.8291 48.6543 14.1416 48.0781C14.4639 47.502 14.6543 46.7842 14.7129 45.9248ZM30.6504 35.3193L24.8496 53H20.1768L28.1016 31.6719H31.0752L30.6504 35.3193ZM35.4697 53L29.6543 35.3193L29.1855 31.6719H32.1885L40.1572 53H35.4697ZM35.2061 45.0605V48.5029H23.9414V45.0605H35.2061ZM55.8457 49.5723V53H45.1084V49.5723H55.8457ZM46.5293 31.6719V53H42.1348V31.6719H46.5293ZM72.6768 49.5723V53H61.3242V49.5723H72.6768ZM62.7598 31.6719V53H58.3652V31.6719H62.7598ZM71.1973 40.3584V43.6982H61.3242V40.3584H71.1973ZM72.6621 31.6719V35.1143H61.3242V31.6719H72.6621ZM92.5986 31.6719V53H88.2041L79.6348 38.7031V53H75.2402V31.6719H79.6348L88.2188 45.9834V31.6719H92.5986ZM102.97 53H98.3262L98.3555 49.5723H102.97C104.122 49.5723 105.094 49.3135 105.885 48.7959C106.676 48.2686 107.271 47.502 107.672 46.4961C108.082 45.4902 108.287 44.2744 108.287 42.8486V41.8086C108.287 40.7148 108.17 39.7529 107.936 38.9229C107.711 38.0928 107.374 37.3945 106.925 36.8281C106.476 36.2617 105.924 35.8369 105.27 35.5537C104.615 35.2607 103.863 35.1143 103.014 35.1143H98.2383V31.6719H103.014C104.439 31.6719 105.743 31.916 106.925 32.4043C108.116 32.8828 109.146 33.5713 110.016 34.4697C110.885 35.3682 111.554 36.4424 112.022 37.6924C112.501 38.9326 112.74 40.3145 112.74 41.8379V42.8486C112.74 44.3623 112.501 45.7441 112.022 46.9941C111.554 48.2441 110.885 49.3184 110.016 50.2168C109.156 51.1055 108.126 51.7939 106.925 52.2822C105.733 52.7607 104.415 53 102.97 53ZM100.816 31.6719V53H96.4219V31.6719H100.816ZM124.283 35.3193L118.482 53H113.81L121.734 31.6719H124.708L124.283 35.3193ZM129.103 53L123.287 35.3193L122.818 31.6719H125.821L133.79 53H129.103ZM128.839 45.0605V48.5029H117.574V45.0605H128.839ZM121.808 30.4707L124.679 25.959H129.264L125.235 30.4707H121.808ZM135.768 31.6719H143.722C145.353 31.6719 146.754 31.916 147.926 32.4043C149.107 32.8926 150.016 33.6152 150.65 34.5723C151.285 35.5293 151.603 36.7061 151.603 38.1025C151.603 39.2451 151.407 40.2266 151.017 41.0469C150.636 41.8574 150.094 42.5361 149.391 43.083C148.697 43.6201 147.882 44.0498 146.944 44.3721L145.553 45.1045H138.639L138.609 41.6768H143.751C144.522 41.6768 145.162 41.54 145.67 41.2666C146.178 40.9932 146.559 40.6123 146.812 40.124C147.076 39.6357 147.208 39.0693 147.208 38.4248C147.208 37.7412 147.081 37.1504 146.827 36.6523C146.573 36.1543 146.188 35.7734 145.67 35.5098C145.152 35.2461 144.503 35.1143 143.722 35.1143H140.162V53H135.768V31.6719ZM147.691 53L142.828 43.4932L147.472 43.4639L152.394 52.7949V53H147.691ZM159.659 31.6719V53H155.279V31.6719H159.659ZM181.295 41.8379V42.8486C181.295 44.4697 181.075 45.9248 180.636 47.2139C180.196 48.5029 179.576 49.6016 178.775 50.5098C177.975 51.4082 177.018 52.0967 175.904 52.5752C174.801 53.0537 173.575 53.293 172.228 53.293C170.89 53.293 169.664 53.0537 168.551 52.5752C167.447 52.0967 166.49 51.4082 165.68 50.5098C164.869 49.6016 164.239 48.5029 163.79 47.2139C163.351 45.9248 163.131 44.4697 163.131 42.8486V41.8379C163.131 40.207 163.351 38.752 163.79 37.4727C164.229 36.1836 164.85 35.085 165.65 34.1768C166.461 33.2686 167.418 32.5752 168.521 32.0967C169.635 31.6182 170.86 31.3789 172.198 31.3789C173.546 31.3789 174.771 31.6182 175.875 32.0967C176.988 32.5752 177.945 33.2686 178.746 34.1768C179.557 35.085 180.182 36.1836 180.621 37.4727C181.07 38.752 181.295 40.207 181.295 41.8379ZM176.856 42.8486V41.8086C176.856 40.6758 176.754 39.6797 176.549 38.8203C176.344 37.9609 176.041 37.2383 175.641 36.6523C175.24 36.0664 174.752 35.627 174.176 35.334C173.6 35.0312 172.94 34.8799 172.198 34.8799C171.456 34.8799 170.797 35.0312 170.221 35.334C169.654 35.627 169.171 36.0664 168.771 36.6523C168.38 37.2383 168.082 37.9609 167.877 38.8203C167.672 39.6797 167.569 40.6758 167.569 41.8086V42.8486C167.569 43.9717 167.672 44.9678 167.877 45.8369C168.082 46.6963 168.385 47.4238 168.785 48.0195C169.186 48.6055 169.674 49.0498 170.25 49.3525C170.826 49.6553 171.485 49.8066 172.228 49.8066C172.97 49.8066 173.629 49.6553 174.205 49.3525C174.781 49.0498 175.265 48.6055 175.655 48.0195C176.046 47.4238 176.344 46.6963 176.549 45.8369C176.754 44.9678 176.856 43.9717 176.856 42.8486Z" fill="url(#paint0_linear_122_251)"/>
<defs>
<linearGradient id="paint0_linear_122_251" x1="91.5" y1="24" x2="91.5" y2="62" gradientUnits="userSpaceOnUse">
<stop stop-color="white"/>
<stop offset="1" stop-color="#D9D9D9" stop-opacity="0.8"/>
</linearGradient>
</defs>
</svg>
